<?xml version="1.0" encoding="utf-8"?>
<!-- Generator: Adobe Illustrator 26.3.1, SVG Export Plug-In . SVG Version: 6.00 Build 0)  -->
<svg version="1.1" id="Capa_1" xmlns="http://www.w3.org/2000/svg" xmlns:xlink="http://www.w3.org/1999/xlink" x="0px" y="0px"
	 viewBox="0 0 59.53 82.2" style="enable-background:new 0 0 59.53 82.2;" xml:space="preserve">
<style type="text/css">
	.st0{fill:#FEE1BE;}
	.st1{fill:#3E4347;}
	.st2{fill:#428BC1;}
	.st3{fill:#594640;}
	.st4{fill:#664F28;}
</style>
<g>
	<g>
		<g>
			<polygon class="st0" points="28.57,33.01 28.98,33.24 29.39,33.66 29.17,33.81 28.83,33.44 28.5,33.27 			"/>
			<path class="st0" d="M29.22,33.7l-0.12,0.1c-0.04,0.04-0.05,0.1-0.01,0.14l0.05,0.06c0.03,0.03,0.06,0.04,0.1,0.03
				c0.07,0.07,0.18,0.15,0.32,0.03c0.02-0.02,0.15-0.13,0.02-0.29C29.4,33.55,29.4,33.55,29.22,33.7z"/>
			<path class="st0" d="M27.21,34.56c-0.13,0.09-0.28,0.08-0.28,0.14s0.1,0.06,0.24,0.06c0.13,0,0.28-0.12,0.34-0.06
				c0.07,0.06,0.15,0.06,0.24,0.06c0.09,0,0.08-0.13,0-0.13c-0.08,0-0.19-0.17-0.2-0.25c-0.04-0.17-0.09-0.53-0.09-0.53
				s-0.03,0.09,0.17-0.27c0,0,0.15-0.31,0.05-0.41c-0.11-0.11-0.23-0.01-0.35,0.33c-0.13,0.34-0.12,0.34-0.12,0.34s0,0,0.08,0.48
				C27.29,34.41,27.34,34.47,27.21,34.56z"/>
			<path class="st0" d="M27.59,33.33c0-0.12,0.15-0.22,0.33-0.22c0.18,0,0.33,0.1,0.33,0.22c0,0.12-0.15,0.22-0.33,0.22
				C27.73,33.55,27.59,33.45,27.59,33.33z"/>
			<path class="st1" d="M27.62,33.58c0,0,0.03-0.05,0.17-0.05c0-0.01,0-0.02,0-0.04c0-0.14,0.11-0.26,0.25-0.26
				c0.09,0,0.16,0.05,0.21,0.12c0,0,0,0,0.13-0.05l0.18,0.01c0,0,0.13-0.17,0.2-0.33c0,0-0.38,0.03-0.61-0.38l-0.31-0.15l-0.26,0.21
				c0,0-0.14,0.23-0.14,0.6C27.42,33.26,27.62,33.31,27.62,33.58z"/>
			<path class="st1" d="M28.87,31.34l-0.24-0.07c-0.02-0.09-0.01-0.11-0.01-0.11c0-0.05,0.04-0.1,0.1-0.1h0.51
				C29.21,31.19,29.01,31.32,28.87,31.34z"/>
			<path class="st0" d="M28.64,31.27l0.24,0.07c0,0-0.12,0.32-0.18,0.55c-0.02,0.07-0.08,0.1-0.1,0.13
				c-0.15,0.19-0.44,0.39-0.44,0.39l-0.25-0.28c0,0,0.21-0.21,0.43-0.32c0.02-0.01,0.11-0.08,0.12-0.15
				C28.47,31.51,28.61,31.39,28.64,31.27z"/>
			<path class="st1" d="M26.4,31.89l0.16-0.19c-0.03-0.09-0.05-0.1-0.05-0.1c-0.03-0.05-0.09-0.06-0.13-0.03l-0.43,0.27
				C26.03,31.94,26.27,31.95,26.4,31.89z"/>
			<path class="st0" d="M26.56,31.7l-0.16,0.19c0,0,0.25,0.17,0.4,0.36c0.05,0.06,0.11,0.06,0.14,0.08
				c0.21,0.12,0.56,0.19,0.56,0.19l0.12-0.36c0,0-0.33-0.11-0.57-0.13c-0.02,0-0.06,0-0.11-0.06C26.84,31.85,26.65,31.78,26.56,31.7
				z"/>
			<path class="st2" d="M27.21,32.48c0,0,0.04-0.26,0.25-0.43c0,0,0.27,0.12,0.33,0.11c0.06-0.01,0.28-0.21,0.28-0.21
				s0.21,0.12,0.36,0.36l-0.29,0.3c0,0-0.16-0.08-0.57,0.06C27.57,32.67,27.41,32.62,27.21,32.48z"/>
			<path class="st1" d="M27.25,33.55c0,0,0.23,0.05,0.3,0.22c0,0,0.05-0.17,0.16-0.33l-0.27-0.23
				C27.44,33.2,27.34,33.33,27.25,33.55z"/>
			<path class="st3" d="M28.82,33.84l-0.1-0.08l-1,0.39l0,0.13c0.16,0.4,0.32,0.54,0.77,0.37C28.94,34.47,28.98,34.25,28.82,33.84z"
				/>
			<path class="st0" d="M27.76,34.26c-0.01-0.02-0.01-0.05-0.01-0.06c0-0.03,0.02-0.05,0.02-0.05s0.01,0.05,0.04,0.11
				c0.17,0.36,0.12,0.18,0.53,0.01c0.41-0.16,0.5,0.01,0.38-0.37c-0.02-0.06-0.05-0.11-0.05-0.11s0.03,0,0.05,0.02
				c0.01,0.01,0.02,0.03,0.04,0.05c0.04,0,0.09-0.03,0.05-0.14c-0.03-0.07-0.07-0.12-0.16-0.09c-0.12-0.22-0.49-0.25-0.63-0.2
				c-0.14,0.05-0.39,0.33-0.33,0.58c-0.08,0.04-0.09,0.11-0.06,0.18C27.67,34.3,27.73,34.29,27.76,34.26z"/>
			<path class="st4" d="M28.43,33.77c0.05,0,0.09,0.04,0.09,0.09c0,0.05-0.04,0.09-0.09,0.09s-0.09-0.04-0.09-0.09
				C28.34,33.81,28.38,33.77,28.43,33.77z"/>
			<circle class="st4" cx="28.01" cy="34.03" r="0.09"/>
			<path class="st4" d="M27.98,33.74c0.06-0.1,0.16-0.14,0.28-0.11c0.01,0,0.02-0.01,0.01-0.02c-0.05-0.04-0.12-0.06-0.19-0.03
				c-0.07,0.03-0.11,0.09-0.11,0.15C27.96,33.74,27.97,33.75,27.98,33.74z"/>
		</g>
	</g>
</g>
</svg>
