<?xml version="1.0" encoding="utf-8"?>
<!-- Generator: Adobe Illustrator 26.3.1, SVG Export Plug-In . SVG Version: 6.00 Build 0)  -->
<svg version="1.1" id="Capa_1" xmlns="http://www.w3.org/2000/svg" xmlns:xlink="http://www.w3.org/1999/xlink" x="0px" y="0px"
	 viewBox="0 0 59.53 82.2" style="enable-background:new 0 0 59.53 82.2;" xml:space="preserve">
<style type="text/css">
	.st0{fill:#FEE1BE;}
	.st1{fill:#E6B796;}
</style>
<g>
	<g>
		<g>
			<path class="st0" d="M17.29,39.94c-0.41-2.99,1.45-7.82,2.31-14.31c0.16-1.16,6.18-2.38,8.99-2.38c0.73,0,1.33,3.29,1.15,4.44
				c-0.13,0.83-1.31,0.61-1.31,0.61c-0.4,1.11-1.57,0.68-1.57,0.68c-0.34,0.94-1.41,0.5-1.41,0.5c-0.44,0.88-1.42,0.45-1.42,0.45
				c-0.88,3.82,0.75,3.48,1.95,9.27c0,0,0.33-0.06,1.27-1.95c3.79-7.65,17.1-5.2,16.31,2.98c-0.18,1.83,1.74,4.8-5.41,7.04
				c-5.68,1.77-12.66-1.63-12.66-1.63c-2.38,0.73-7,0.68-7.14-1.08C18.19,42.51,17.5,41.47,17.29,39.94z"/>
			<path class="st1" d="M43.56,40.22c0.19-1.94-0.4-3.51-1.44-4.69c0.63,1.05,0.95,2.33,0.8,3.83c-0.18,1.83,1.74,4.8-5.41,7.04
				c-5.68,1.77-12.66-1.63-12.66-1.63c-1.86,0.57-5.11,0.67-6.49-0.16c0.18,1.71,4.77,1.75,7.13,1.02c0,0,6.98,3.4,12.66,1.63
				C45.31,45.03,43.39,42.05,43.56,40.22z"/>
			<path class="st1" d="M23.51,29.87c-1.11,4.5,0.68,4.31,1.89,10.02l0.63-0.66c-0.88-5.71-2.4-5.02-2.03-9.26
				C23.73,29.96,23.51,29.87,23.51,29.87z"/>
			<path class="st1" d="M29.23,42.7c3.66,1.37,9.17-0.03,12.31-1.48C40.14,44.51,32.86,46.26,29.23,42.7z"/>
			<path class="st1" d="M27.41,24.49c-0.26-0.49-0.79-0.44-1.15-0.29C26.31,23.68,27.61,23.28,27.41,24.49z"/>
			<path class="st1" d="M30.09,26.39c-0.11-0.97-0.45-1.93-1.04-2.71c0.31,0.82,0.47,1.7,0.48,2.58c0,0.39,0.09,1.8-0.61,1.62
				c-0.43-0.11-0.44-0.48-0.57-0.86c-0.19-0.6-0.52-1.28-0.48-1.91c-0.16,0.62,0.03,1.36,0.1,1.99c0.04,0.36,0.31,1.35-0.17,1.49
				c-0.27,0.08-0.57-0.1-0.79-0.23c-0.08-0.05-0.15-0.41-0.18-0.51c-0.19-0.62-0.53-1.33-0.49-1.97c-0.17,0.58,0,1.29,0.05,1.89
				c0.03,0.37,0.23,1.17-0.22,1.36c-0.51,0.25-0.59-0.35-0.68-0.67c-0.18-0.58-0.46-1.22-0.45-1.84c-0.18,0.75,0.03,1.62,0.07,2.38
				c0.02,0.38-0.84,0.72-1.16,0.48c-0.5-0.37-0.58-1.25-0.64-1.81c0.15,0.19,0.37,0.44,0.64,0.41c-0.23-0.25-0.33-0.67-0.49-0.97
				c-0.14-0.25-0.43-0.83-0.77-0.84c0.05,0.11,0.34,0.83,0.29,0.9c-0.14,0.24-0.27,0.48-0.43,0.71c-0.13,0.19-0.51,0.81-0.82,0.62
				c-0.33-0.2-0.44-0.75-0.54-1.09c0.03,0.43,0.01,1.11,0.44,1.37c0.41,0.24,0.87-0.14,1.13-0.42c0.09,0.9,0.47,2.07,1.59,2
				c0.24-0.02,0.47-0.09,0.68-0.19c0.18-0.08,0.38-0.29,0.56-0.23c0.47,0.14,0.98,0.05,1.31-0.32c0.16-0.17,0.12-0.28,0.35-0.22
				c0.25,0.06,0.51,0.07,0.76,0c0.2-0.05,0.39-0.18,0.52-0.34c0.08-0.09,0.14-0.19,0.19-0.3c0.08-0.17,0.16-0.08,0.34-0.09
				C30.23,28.63,30.19,27.21,30.09,26.39C29.97,25.41,30.12,26.64,30.09,26.39z"/>
			<path class="st1" d="M29.02,23.88c-0.26-0.49-0.79-0.44-1.15-0.29C27.92,23.08,29.22,22.68,29.02,23.88z"/>
			<path class="st1" d="M26.12,25.15c-0.26-0.49-0.79-0.44-1.15-0.29C25.02,24.35,26.32,23.95,26.12,25.15z"/>
			<path class="st1" d="M24.64,25.85c-0.26-0.49-0.79-0.44-1.15-0.29C23.54,25.04,24.84,24.64,24.64,25.85z"/>
		</g>
	</g>
</g>
</svg>
