<?xml version="1.0" encoding="utf-8"?>
<!-- Generator: Adobe Illustrator 26.3.1, SVG Export Plug-In . SVG Version: 6.00 Build 0)  -->
<svg version="1.1" id="Capa_1" xmlns="http://www.w3.org/2000/svg" xmlns:xlink="http://www.w3.org/1999/xlink" x="0px" y="0px"
	 viewBox="0 0 59.53 82.2" style="enable-background:new 0 0 59.53 82.2;" xml:space="preserve">
<style type="text/css">
	.st0{fill:#DDE8E3;}
	.st1{fill:#FFFFFF;}
	.st2{fill:#493B30;}
</style>
<g>
	<g>
		<g>
			<path class="st0" d="M19.61,37.22c0,2.91,1.24,7.14,4.96,7.14c3.73,0,4.96-4.22,4.96-7.14C29.53,28.21,19.61,28.21,19.61,37.22z"
				/>
			<path class="st0" d="M29.53,37.22c0,2.91,1.24,7.14,4.96,7.14c3.73,0,4.96-4.22,4.96-7.14C39.46,28.21,29.53,28.21,29.53,37.22z"
				/>
			<path class="st1" d="M19.87,37.44c0,2.5,0.79,6.4,3.96,6.4c3.17,0,3.96-3.9,3.96-6.4C27.79,28.83,19.87,28.83,19.87,37.44z"/>
			<path class="st1" d="M29.79,37.44c0,2.5,0.79,6.4,3.96,6.4c3.17,0,3.96-3.9,3.96-6.4C37.71,28.83,29.79,28.83,29.79,37.44z"/>
			<path class="st2" d="M19.87,37.49c0,2.05,1.44,3.63,3.22,3.63c1.78,0,3.22-1.57,3.22-3.63C26.3,32.44,19.87,32.44,19.87,37.49z"
				/>
			<path class="st2" d="M29.79,37.49c0,2.05,1.44,3.63,3.22,3.63c1.78,0,3.22-1.57,3.22-3.63C36.23,32.44,29.79,32.44,29.79,37.49z"
				/>
		</g>
	</g>
</g>
</svg>
