<?xml version="1.0" encoding="utf-8"?>
<!-- Generator: Adobe Illustrator 26.3.1, SVG Export Plug-In . SVG Version: 6.00 Build 0)  -->
<svg version="1.1" id="Capa_1" xmlns="http://www.w3.org/2000/svg" xmlns:xlink="http://www.w3.org/1999/xlink" x="0px" y="0px"
	 viewBox="0 0 59.53 82.2" style="enable-background:new 0 0 59.53 82.2;" xml:space="preserve">
<style type="text/css">
	.st0{fill:#594640;}
	.st1{fill:#AE8FC2;}
	.st2{fill:#FEE1BE;}
	.st3{fill:#E6B796;}
	.st4{fill:#F5F4F5;}
	.st5{fill:#664F28;}
	.st6{fill:#2B2925;}
	.st7{fill:#3B3226;}
	.st8{fill:#E08672;}
	.st9{fill:#B86E5D;}
</style>
<g>
	<g>
		<g>
			<path class="st0" d="M27.65,23.46c-5.61,0-8.68,3.5-8.68,8.1v14.35h17.35V31.56c0-6.84-4.7-6.72-4.7-6.72
				S31.28,23.46,27.65,23.46z"/>
			<path class="st1" d="M40.18,29.15h-2.86c0,0,3.1,12.53-5.81,12.53c0,0,0,0,0,0v-2.76h-7.71v2.76c-4.85,0.15-5.83,0.93-5.83,5.01
				h19.37C42.14,40.89,41.61,35.83,40.18,29.15z"/>
			<path class="st2" d="M34.47,27.1c0.19-0.4,0.84-0.4,1.52,0.3c0.41,0.42,0.54,0.59,0.86,0.63l-0.11-3.52
				c-0.01-0.29,0.21-0.54,0.5-0.55h0c0.28-0.01,0.52,0.23,0.53,0.52l-0.01-0.37c-0.01-0.35,0.25-0.65,0.59-0.66
				c0.34-0.01,0.62,0.27,0.63,0.62l0.01,0.28c-0.01-0.31,0.22-0.57,0.51-0.57l0,0c0.29-0.01,0.54,0.23,0.55,0.54l0.02,0.62
				c-0.01-0.29,0.19-0.52,0.47-0.53c0.27-0.01,0.49,0.22,0.5,0.5l0.08,2.72c0.01,0.03,0.01,0.05,0.01,0.08c0,0,0.23,1.43-0.13,2.34
				c-0.55,1.36-3.58,1.81-4.61-0.45c-0.2-0.45-0.6-0.77-0.96-1.19C34.99,27.92,34.27,27.54,34.47,27.1z"/>
			<path class="st2" d="M21.2,35.44c0,0-1.3-0.33-1.3-2.24c0-1.51,0.98-1.77,0.98-1.77c3.52,0,10.04-4.53,10.04-4.53
				s1.37,4,3.46,4.53c0,0,1.01,0.19,1.01,1.77c0,1.91-1.35,2.24-1.35,2.24c-0.02,2.88-3.98,6.35-6.39,6.35
				C25.23,41.79,21.2,38.32,21.2,35.44z"/>
			<path class="st3" d="M27.64,37.33c-1.25,0-1.87-0.89-1.25-0.89s1.87,0,2.49,0C29.51,36.43,28.88,37.33,27.64,37.33z"/>
			<path class="st4" d="M29.51,34.69c-0.43,0-0.38-0.54-0.38-0.54c0.67-3.4,4.46-1.59,4.46-1.59c0.3,0.6-0.69,2.06-0.96,2.13
				C31.38,35,29.51,34.69,29.51,34.69z"/>
			<circle class="st5" cx="31.21" cy="33.31" r="1.34"/>
			<circle class="st6" cx="31.21" cy="33.31" r="0.45"/>
			<path class="st7" d="M29.13,34.15c0.67-4.08,4.02-1.36,5.36-1.94C33.15,33.47,30.47,30.75,29.13,34.15z"/>
			<path class="st4" d="M25.77,34.69c0.43,0,0.38-0.54,0.38-0.54c-0.67-3.4-4.46-1.59-4.46-1.59c-0.3,0.6,0.69,2.06,0.96,2.13
				C23.89,35,25.77,34.69,25.77,34.69z"/>
			<circle class="st5" cx="24.06" cy="33.31" r="1.34"/>
			<path class="st7" d="M26.15,34.15c-0.67-4.08-4.02-1.36-5.36-1.94C22.13,33.47,24.81,30.75,26.15,34.15z"/>
			<path class="st8" d="M27.64,38.82l-2.98-0.45c1.79,2.54,4.17,2.54,5.96,0L27.64,38.82z"/>
			<path class="st9" d="M28.81,38.25c-0.88-0.33-1.18,0.2-1.18,0.2s-0.3-0.53-1.17-0.2c-0.69,0.26-1.81,0.11-1.8,0.11
				c1.19,0.26,1.34,0.75,2.98,0.75c1.64,0,1.79-0.49,2.98-0.75C30.62,38.36,29.5,38.51,28.81,38.25z"/>
			<circle class="st6" cx="24.06" cy="33.31" r="0.45"/>
		</g>
	</g>
</g>
</svg>
